<?xml version="1.0" encoding="utf-8"?>
<?xml-stylesheet type="text/css" href="../style.css"?>
<svg width="350" height="350" id="initials" xmlns="http://www.w3.org/2000/svg" viewBox="0 0 364.80384 391.48196">
  <defs>
    <style>
      .cls-1 {
        fill: none;
        stroke: #fff;
        stroke-width: 3px;
      }
    </style>
  </defs>
  <g id="F">
    <path class="cls-1 nameStyle" d="M468.75977,442.20117H440.96l13-22.40039h16.39942l.5996-36.39892-58.50485-12.43043,41.36716-18.17114L584.958,360.002l-31.39942,28-39.7998-1.60009-.79981,33.39892H550.3584l-13,22.40039h-25.999L510.75879,473l1.70791,129.23933L467.164,527.02189l.59574-34.82169Z" transform="translate(-223.86411 -216.27651)"/>
  </g>
  <g id="M">
    <path class="cls-1 nameStyle" d="M404.22168,218.00244l29.999,20.79932L431.42188,339.2002l22.39941,13.60009L411.42188,370.3999l-22-16.1997,2.60009-96.39844-26.99951-11.19971-2.3999,92.59815L381.82227,353l-39.19971,17.3999-22.19971-16.1997,2.80029-96.39844-27.3999-11.3999-1.7998,92.79834,18.1997,13.60009L274.02393,370.3999l-22-16.1997L253.624,253.80176l-26.59961-17,42.39942-18.79932,26.59961,18.59961,37.39941-18.59961,32.19971,18.19971Z" transform="translate(-223.86411 -216.27651)"/>
  </g>
</svg>
